<?xml version="1.0" standalone="no"?>
<!DOCTYPE svg PUBLIC "-//W3C//DTD SVG 20010904//EN"
		"http://www.w3.org/TR/2001/REC-SVG-20010904/DTD/svg10.dtd">
<svg version="1.0" xmlns="http://www.w3.org/2000/svg"
	 width="128.000000pt" height="128.000000pt" viewBox="0 0 128.000000 128.000000"
	 preserveAspectRatio="xMidYMid meet">
	<metadata>
		Created by potrace 1.14, written by Peter Selinger 2001-2017
	</metadata>
	<g transform="translate(0.000000,128.000000) scale(0.100000,-0.100000)"
	   fill="#FFF" stroke="none">
		<path d="M640 1185 l0 -95 -299 0 c-277 0 -300 -1 -305 -17 -13 -49 -27 -134
-22 -142 3 -5 55 -8 116 -7 68 0 110 -3 110 -9 0 -5 -25 -138 -56 -295 -30
-157 -61 -315 -68 -352 l-13 -68 96 0 96 0 54 278 c29 152 54 282 55 287 1 6
8 43 16 83 7 39 16 72 19 73 8 1 173 1 189 0 9 -1 12 -49 13 -203 1 -166 3
-189 10 -128 12 106 63 257 113 332 85 129 220 185 417 176 l99 -5 0 94 0 93
-320 0 -320 0 0 -95z"/>
		<path d="M1034 927 c-85 -33 -132 -96 -165 -223 -27 -106 -29 -218 -3 -270 28
-58 77 -79 184 -77 47 0 107 6 134 12 27 7 50 10 53 8 2 -3 -2 -37 -8 -76 -9
-50 -17 -75 -30 -82 -10 -5 -63 -14 -119 -21 -246 -29 -404 55 -429 228 -6 44
-9 -4 -10 -183 l-1 -243 320 0 320 0 0 464 0 464 -31 6 c-50 10 -181 6 -215
-7z"/>
	</g>
</svg>
