<?xml version="1.0" standalone="no"?>
<!DOCTYPE svg PUBLIC "-//W3C//DTD SVG 20010904//EN"
 "http://www.w3.org/TR/2001/REC-SVG-20010904/DTD/svg10.dtd">
<svg version="1.0" xmlns="http://www.w3.org/2000/svg"
 width="128.000000pt" height="128.000000pt" viewBox="0 0 128.000000 128.000000"
 preserveAspectRatio="xMidYMid meet">
<metadata>
Created by potrace 1.14, written by Peter Selinger 2001-2017
</metadata>
<g transform="translate(0.000000,128.000000) scale(0.100000,-0.100000)"
fill="#000000" stroke="none">
<path d="M640 1195 l0 -85 -97 -1 c-54 0 -196 0 -315 0 l-218 1 0 -50 c0 -45
2 -50 23 -51 12 0 76 -1 142 -2 l119 -2 0 -417 0 -418 60 0 61 0 -1 419 -2
418 114 1 114 1 0 -505 0 -504 320 0 320 0 0 640 0 640 -320 0 -320 0 0 -85z"/>
</g>
</svg>
